<svg width="80" height="80" viewBox="0 0 80 80" fill="none" xmlns="http://www.w3.org/2000/svg">
<path opacity="0.1" d="M40 80C62.0914 80 80 62.0914 80 40C80 17.9086 62.0914 0 40 0C17.9086 0 0 17.9086 0 40C0 62.0914 17.9086 80 40 80Z" fill="#FF3D3D"></path>
<path d="M56.7821 65.2797C52.0312 68.6117 46.2838 70.7684 40.0913 70.7684C33.8989 70.7684 27.9841 68.5471 23.1914 65.1351C21.7954 64.1385 21.0613 62.4573 21.2933 60.7608L21.765 57.3223C26.9114 61.3466 33.3169 63.6174 39.9924 63.6174C46.668 63.6174 52.8452 61.4303 57.9346 57.5429L58.6041 60.5364C59.0073 62.3432 58.296 64.2222 56.7783 65.2835L56.7821 65.2797Z" fill="#FF3D3D"></path>
<path d="M47.1814 10.2849C44.5796 9.49757 41.8067 9.12861 38.9387 9.25032C25.2377 9.8361 14.6063 21.4185 15.192 35.1157C15.4203 40.4447 17.3145 45.3097 20.3423 49.2351C25.1084 55.3933 32.6892 59.2199 41.0574 58.8623C49.4826 58.501 56.7478 53.986 60.9509 47.3713C63.5907 43.2328 65.0285 38.269 64.8002 32.9932C64.7013 30.6501 64.2753 28.3869 63.5716 26.2606" stroke="#071C26" stroke-width="3.2" stroke-linecap="round" stroke-linejoin="round"></path>
<path d="M59.7413 18.3605L64.9258 16.9075C65.2948 16.8048 65.2948 16.2837 64.9258 16.181L59.7489 14.7051C59.6234 14.6709 59.5245 14.5682 59.4865 14.4426L58.0334 9.25817C57.9307 8.8892 57.4096 8.8892 57.3069 9.25817L55.8311 14.435C55.7969 14.5606 55.6941 14.6595 55.5686 14.6975L50.3841 16.1505C50.0152 16.2532 50.0152 16.7743 50.3841 16.877L55.561 18.3529C55.6865 18.3871 55.7854 18.4898 55.8235 18.6153L57.2765 23.7998C57.3792 24.1688 57.9003 24.1688 58.003 23.7998L59.4789 18.6229C59.5131 18.4974 59.6158 18.3985 59.7413 18.3605Z" fill="#FF3D3D"></path>
<path d="M47.5899 26.9686L51.1387 25.9758C51.3898 25.9036 51.3898 25.5498 51.1387 25.4775L47.5937 24.4657C47.5062 24.4429 47.4415 24.3745 47.4149 24.287L46.4221 20.7381C46.3498 20.487 45.9961 20.487 45.9238 20.7381L44.912 24.2832C44.8892 24.3707 44.8207 24.4391 44.7333 24.4619L41.1844 25.4547C40.9333 25.527 40.9333 25.8807 41.1844 25.953L44.7294 26.9648C44.8169 26.9876 44.8816 27.0561 44.9082 27.1436L45.901 30.6924C45.9733 30.9435 46.327 30.9435 46.3993 30.6924L47.4111 27.1474C47.4339 27.0599 47.5024 26.9914 47.5899 26.9686Z" fill="#FF3D3D"></path>
<path d="M55.9976 36.0672L58.8048 35.2799C59.0026 35.2228 59.0026 34.9413 58.8048 34.8843L56.0014 34.0855C55.933 34.0665 55.8797 34.0132 55.8607 33.9448L55.0733 31.1376C55.0163 30.9398 54.7348 30.9398 54.6777 31.1376L53.8789 33.9409C53.8599 34.0094 53.8067 34.0627 53.7382 34.0817L50.9311 34.8691C50.7333 34.9261 50.7333 35.2076 50.9311 35.2646L53.7344 36.0634C53.8029 36.0824 53.8561 36.1357 53.8751 36.2042L54.6625 39.0113C54.7196 39.2091 55.0011 39.2091 55.0581 39.0113L55.8569 36.208C55.8759 36.1395 55.9292 36.0863 55.9976 36.0672Z" fill="#FF3D3D"></path>
<path d="M23.4582 36.3325C22.7659 29.7178 25.8659 23.5824 31.001 20.083" stroke="#071C26" stroke-width="3.2" stroke-linecap="round" stroke-linejoin="round"></path>
<path d="M36.5582 17.5879C37.3532 17.3901 38.171 17.2418 39.0078 17.1543" stroke="#071C26" stroke-width="3.2" stroke-linecap="round" stroke-linejoin="round"></path>
</svg>
