<svg width="249" height="294" viewBox="0 0 249 294" fill="none" xmlns="http://www.w3.org/2000/svg">
	<g clip-path="url(#clip0_4981_14611)">
		<path
			d="M198.421 257.598C177.636 272.176 152.491 281.612 125.399 281.612C98.3071 281.612 72.4299 271.893 51.4619 256.966C45.3545 252.606 42.1428 245.25 43.1579 237.828L45.2214 222.785C67.7371 240.391 95.761 250.326 124.967 250.326C154.172 250.326 181.197 240.757 203.464 223.75L206.392 236.847C208.156 244.751 205.044 252.972 198.405 257.615L198.421 257.598Z"
			fill="black" />
		<path
			d="M156.419 16.9982C145.036 13.5534 132.904 11.9392 120.357 12.4718C60.415 15.0345 13.9025 65.7073 16.4653 125.633C17.4638 148.947 25.7511 170.231 38.9976 187.405C59.8492 214.347 93.0153 231.089 129.626 229.524C166.487 227.943 198.272 208.19 216.66 179.251C228.209 161.145 234.5 139.428 233.501 116.347C233.069 106.096 231.205 96.1942 228.126 86.8917"
			stroke="black" stroke-width="14" stroke-linecap="round" stroke-linejoin="round" />
		<path
			d="M211.368 52.3277L234.05 45.9708C235.664 45.5214 235.664 43.2416 234.05 42.7923L211.401 36.3354C210.852 36.1857 210.419 35.7364 210.253 35.1872L203.896 12.5051C203.447 10.8909 201.167 10.8909 200.718 12.5051L194.261 35.1539C194.111 35.7031 193.662 36.1357 193.112 36.3022L170.43 42.6591C168.816 43.1085 168.816 45.3883 170.43 45.8376L193.079 52.2945C193.628 52.4442 194.061 52.8935 194.227 53.4427L200.584 76.1248C201.034 77.739 203.314 77.739 203.763 76.1248L210.22 53.476C210.37 52.9268 210.819 52.4942 211.368 52.3277Z"
			fill="black" />
		<path
			d="M158.205 89.9855L173.731 85.6421C174.83 85.326 174.83 83.7783 173.731 83.4621L158.222 79.0356C157.839 78.9357 157.556 78.6362 157.44 78.2534L153.096 62.7271C152.78 61.6287 151.232 61.6287 150.916 62.7271L146.49 78.2368C146.39 78.6195 146.09 78.9191 145.707 79.0189L130.181 83.3623C129.083 83.6785 129.083 85.2261 130.181 85.5423L145.691 89.9689C146.074 90.0687 146.356 90.3683 146.473 90.751L150.816 106.277C151.133 107.376 152.68 107.376 152.996 106.277L157.423 90.7677C157.523 90.3849 157.822 90.0854 158.205 89.9855Z"
			fill="black" />
		<path
			d="M194.989 129.794L207.27 126.35C208.136 126.1 208.136 124.868 207.27 124.619L195.006 121.124C194.706 121.041 194.473 120.808 194.39 120.508L190.945 108.227C190.696 107.362 189.464 107.362 189.215 108.227L185.72 120.492C185.637 120.791 185.404 121.024 185.104 121.108L172.823 124.552C171.957 124.802 171.957 126.033 172.823 126.283L185.087 129.778C185.387 129.861 185.62 130.094 185.703 130.393L189.148 142.675C189.398 143.54 190.629 143.54 190.879 142.675L194.373 130.41C194.457 130.11 194.69 129.877 194.989 129.794Z"
			fill="black" />
		<path d="M52.6302 130.954C49.6014 102.015 63.1641 75.1723 85.6299 59.8623" stroke="black"
			stroke-width="14" stroke-linecap="round" stroke-linejoin="round" />
		<path d="M109.942 48.946C113.42 48.0806 116.998 47.4316 120.659 47.0488" stroke="black"
			stroke-width="14" stroke-linecap="round" stroke-linejoin="round" />
	</g>
	<defs>
		<clipPath id="clip0_4981_14611">
			<rect width="249" height="294" fill="white" />
		</clipPath>
	</defs>
</svg>
