<svg width="24" height="23" viewBox="0 0 24 23" fill="none" xmlns="http://www.w3.org/2000/svg">
	<path d="M1.42188 9.58264H7.60334H16.5321H22.7136" stroke="black" stroke-linecap="round"
		stroke-linejoin="round" />
	<path
		d="M12.8026 19.8851L7.60334 9.58265L8.977 4.08801H19.9663L22.7136 9.58265L12.8026 19.8851ZM12.8026 19.8851L1.42188 9.58265L2.3903 7.64579"
		stroke="black" stroke-linecap="round" stroke-linejoin="round" />
	<path d="M12.8027 19.8851L16.5322 9.58265L15.4333 4.08801" stroke="black" stroke-linecap="round"
		stroke-linejoin="round" />
	<path
		d="M3.94446 0.213867L4.75794 2.27648L6.82055 3.08996L4.75794 3.90345L3.94446 5.96606L3.13097 3.90345L1.06836 3.08996L3.13097 2.27648L3.94446 0.213867Z"
		fill="black" />
	<path
		d="M20.1925 16.4617L21.006 18.5243L23.0686 19.3378L21.006 20.1513L20.1925 22.2139L19.379 20.1513L17.3164 19.3378L19.379 18.5243L20.1925 16.4617Z"
		fill="black" />
</svg>
