<svg width="74" height="80" viewBox="0 0 74 80" fill="none" xmlns="http://www.w3.org/2000/svg">
<g clip-path="url(#clip0_3598_373)">
<path opacity="0.08" d="M18.4803 74.824C35.8761 84.8675 58.1202 78.9073 68.1637 61.5114C78.2072 44.1155 72.2469 21.8715 54.8511 11.828C37.4552 1.78446 15.2112 7.74472 5.16763 25.1406C-4.87588 42.5365 1.08439 64.7805 18.4803 74.824Z" fill="#00B36C"></path>
<path d="M46.3749 43.8943C42.7237 42.0774 39.1289 36.4583 33.0436 36.4303C24.435 36.3895 24.3991 40.8013 18.684 43.9641L26.758 57.9525C27.2111 58.7342 28.0436 59.2149 28.9471 59.2164L45.1014 59.2162C46.0019 59.216 46.8379 58.7361 47.29 57.953L54.1741 46.0295C54.1741 46.0295 50.0641 45.7332 46.3749 43.8943ZM31.1893 47.1513C30.185 46.5715 29.8405 45.2858 30.422 44.2786C31.0035 43.2714 32.2875 42.9298 33.2918 43.5096C34.2961 44.0895 34.6435 45.3768 34.0637 46.3811C33.4838 47.3854 32.1965 47.7328 31.1893 47.1513ZM43.3937 51.7135L41.0841 52.3323C41.029 52.3471 40.9842 52.3911 40.9672 52.4473L40.2845 54.739C40.2342 54.9001 40.0024 54.8983 39.961 54.7347L39.3422 52.425C39.3262 52.3653 39.2851 52.3222 39.2289 52.3053L36.9371 51.6226C36.7743 51.5752 36.7762 51.3434 36.9415 51.2991L39.2511 50.6802C39.3062 50.6654 39.351 50.6215 39.3679 50.5652L40.0507 48.2735C40.101 48.1124 40.3311 48.1172 40.3771 48.2796L40.9914 50.5904C41.009 50.6472 41.0501 50.6903 41.1063 50.7072L43.398 51.3899C43.5621 51.442 43.5573 51.6721 43.3937 51.7135Z" fill="#00B36C"></path>
<path d="M46.8118 35.8437L49.1214 35.2248C49.2867 35.1805 49.2885 34.9487 49.1257 34.9013L46.834 34.2186C46.7778 34.2017 46.7338 34.1569 46.719 34.1018L46.1002 31.7922C46.0559 31.6269 45.8241 31.625 45.7767 31.7878L45.0939 34.0795C45.077 34.1357 45.0322 34.1797 44.9771 34.1945L42.6675 34.8134C42.5022 34.8577 42.5003 35.0895 42.6631 35.1369L44.9549 35.8196C45.0111 35.8365 45.0551 35.8813 45.0698 35.9364L45.6887 38.246C45.733 38.4113 45.9648 38.4132 46.0122 38.2504L46.6949 35.9587C46.7118 35.9025 46.7567 35.8585 46.8118 35.8437Z" fill="#00B36C"></path>
<path d="M43.3024 19.5548L47.8335 11.7067C48.7612 10.0998 50.8183 9.54863 52.4251 10.4764L57.2312 13.2512C58.8381 14.1789 59.3893 16.236 58.4616 17.8428L53.9305 25.6909C53.3305 26.7301 53.3318 28.0118 53.9305 29.0522L61.125 41.512C61.7236 42.5524 61.725 43.834 61.125 44.8733L50.3889 63.4688C49.7889 64.508 48.6783 65.1477 47.4779 65.1494L26.0016 65.1509C24.8012 65.1527 23.6892 64.5106 23.0905 63.4702L12.3566 44.8721C11.7579 43.8317 11.7565 42.55 12.3565 41.5108L23.0927 22.9153C23.6927 21.8761 24.8033 21.2364 26.0037 21.2347L40.3914 21.2354C41.5917 21.2336 42.7024 20.594 43.3024 19.5548Z" stroke="#071C26" stroke-width="3.36134" stroke-linecap="round" stroke-linejoin="round"></path>
<path d="M60.1415 14.9339L49.5134 8.79777L50.5293 3.96593C50.9062 2.17691 52.9211 1.27531 54.5047 2.18959L63.3658 7.30556C64.9494 8.21985 65.1789 10.4172 63.8151 11.6365L60.1386 14.9322L60.1415 14.9339Z" stroke="#071C26" stroke-width="3.36134" stroke-linecap="round" stroke-linejoin="round"></path>
</g>
<defs>
<clipPath id="clip0_3598_373">
<rect width="73.2773" height="80" fill="white"></rect>
</clipPath>
</defs>
</svg>
