<svg width="249" height="294" viewBox="0 0 249 294" fill="none" xmlns="http://www.w3.org/2000/svg">
	<g clip-path="url(#clip0_4981_14602)">
		<path
			d="M158.843 192.818C142.868 184.869 127.141 160.285 100.518 160.163C62.8556 159.984 62.6985 179.286 37.6947 193.123L73.0187 254.323C75.0008 257.742 78.6432 259.845 82.5959 259.852L153.271 259.851C157.211 259.85 160.868 257.751 162.846 254.325L192.964 202.16C192.964 202.16 174.983 200.863 158.843 192.818ZM92.4054 207.067C88.0116 204.531 86.5045 198.906 89.0486 194.499C91.5927 190.093 97.2102 188.598 101.604 191.135C105.998 193.672 107.518 199.304 104.981 203.698C102.444 208.092 96.812 209.611 92.4054 207.067ZM145.8 227.027L135.695 229.734C135.454 229.799 135.258 229.991 135.184 230.237L132.197 240.264C131.977 240.969 130.963 240.96 130.782 240.245L128.074 230.14C128.004 229.879 127.825 229.69 127.579 229.616L117.552 226.629C116.84 226.422 116.848 225.408 117.571 225.214L127.676 222.506C127.917 222.442 128.113 222.249 128.187 222.003L131.174 211.977C131.394 211.272 132.401 211.293 132.602 212.003L135.29 222.113C135.367 222.362 135.547 222.55 135.793 222.625L145.819 225.611C146.537 225.839 146.516 226.846 145.8 227.027Z"
			fill="black"></path>
		<path
			d="M160.754 157.599L170.859 154.891C171.582 154.697 171.59 153.683 170.878 153.476L160.851 150.489C160.605 150.415 160.413 150.219 160.348 149.978L157.641 139.873C157.447 139.15 156.433 139.142 156.225 139.854L153.239 149.88C153.164 150.126 152.968 150.319 152.727 150.383L142.623 153.091C141.9 153.285 141.891 154.299 142.604 154.506L152.63 157.493C152.876 157.567 153.068 157.763 153.133 158.004L155.841 168.109C156.034 168.832 157.048 168.84 157.256 168.128L160.243 158.102C160.317 157.856 160.513 157.663 160.754 157.599Z"
			fill="black"></path>
		<path
			d="M145.401 86.3317L165.224 51.9963C169.283 44.9663 178.283 42.5548 185.313 46.6136L206.339 58.7533C213.37 62.8122 215.781 71.8118 211.722 78.8419L191.899 113.177C189.274 117.724 189.28 123.331 191.899 127.883L223.375 182.395C225.994 186.946 226 192.553 223.375 197.1L176.404 278.456C173.779 283.002 168.92 285.801 163.669 285.808L69.7096 285.815C64.4581 285.822 59.5931 283.014 56.974 278.462L10.0129 197.095C7.39377 192.543 7.38773 186.936 10.0127 182.389L56.9833 101.034C59.6083 96.4873 64.4673 93.6889 69.7188 93.6813L132.665 93.6843C137.917 93.6767 142.776 90.8783 145.401 86.3317Z"
			stroke="black" stroke-width="14.7059" stroke-linecap="round" stroke-linejoin="round"></path>
		<path
			d="M219.071 66.1192L172.573 39.2736L177.018 18.1343C178.667 10.3073 187.482 6.3628 194.41 10.3628L233.178 32.7452C240.106 36.7452 241.11 46.3588 235.144 51.6931L219.059 66.1118L219.071 66.1192Z"
			stroke="black" stroke-width="14.7059" stroke-linecap="round" stroke-linejoin="round"></path>
	</g>
	<defs>
		<clipPath id="clip0_4981_14602">
			<rect width="249" height="294" fill="white"></rect>
		</clipPath>
	</defs>
</svg>
