<svg width="250" height="250" viewBox="0 0 250 250" fill="none" xmlns="http://www.w3.org/2000/svg">
	<rect width="250" height="250" fill="#E9D5FC" />
	<rect x="47" y="47" width="156" height="156" rx="78" fill="#902EEF" />
	<g clip-path="url(#clip0_5126_626)">
		<path fill-rule="evenodd" clip-rule="evenodd"
			d="M105 79.8647C107.209 79.8647 109 81.6556 109 83.8647V113.657H141V83.8647C141 81.6556 142.791 79.8647 145 79.8647C147.209 79.8647 149 81.6556 149 83.8647V113.657H158.279C160.488 113.657 162.279 115.448 162.279 117.657V140.953C162.279 160.521 147.202 176.568 128.031 178.111L128.031 220.865C128.031 223.074 126.24 224.865 124.031 224.865C121.822 224.865 120.031 223.074 120.031 220.865L120.031 177.905C101.791 175.476 87.7188 159.858 87.7188 140.953V117.657C87.7188 115.448 89.5096 113.657 91.7188 113.657H101V83.8647C101 81.6556 102.791 79.8647 105 79.8647ZM95.7188 121.657V140.953C95.7188 157.124 108.828 170.233 124.999 170.233C141.17 170.233 154.279 157.124 154.279 140.953V121.657H95.7188Z"
			fill="white" />
	</g>
	<defs>
		<clipPath id="clip0_5126_626">
			<rect width="156" height="156" fill="white" transform="translate(47 47)" />
		</clipPath>
	</defs>
</svg>
