<svg width="249" height="294" viewBox="0 0 249 294" fill="none" xmlns="http://www.w3.org/2000/svg">
	<g clip-path="url(#clip0_4981_14618)">
		<path d="M219.716 175.036V263.376L27.7622 263.347L27.3633 175.036" stroke="black"
			stroke-width="12" stroke-linecap="round" stroke-linejoin="round" />
		<path d="M4.56641 126.591L27.3638 59.624H221.142L246.789 126.591" stroke="black"
			stroke-width="12" stroke-linecap="round" stroke-linejoin="round" />
		<path
			d="M61.2175 126.592C60.6048 143.675 46.5702 157.311 29.3439 157.311C12.1176 157.311 -1.93127 143.675 -2.54395 126.592H61.2175Z"
			fill="black" />
		<path
			d="M125.334 126.592C124.721 143.675 110.687 157.311 93.4605 157.311C76.2342 157.311 62.1996 143.675 61.5869 126.592H125.348H125.334Z"
			fill="black" />
		<path
			d="M189.452 126.592C188.84 143.675 174.805 157.311 157.579 157.311C140.352 157.311 126.318 143.675 125.705 126.592H189.467H189.452Z"
			fill="black" />
		<path
			d="M253.569 126.592C252.957 143.675 238.922 157.311 221.696 157.311C204.47 157.311 190.435 143.675 189.822 126.592H253.584H253.569Z"
			fill="black" />
		<path
			d="M195.495 239.154V207.095C195.495 189.389 181.141 175.036 163.436 175.036C145.73 175.036 131.377 189.389 131.377 207.095V239.154H195.495Z"
			fill="black" />
		<path
			d="M88.2034 212.837L106.128 207.864C107.396 207.508 107.41 205.713 106.128 205.342L88.2604 200.199C87.8187 200.07 87.4909 199.728 87.3627 199.287L82.39 181.362C82.0338 180.094 80.2385 180.08 79.8681 181.362L74.7244 199.23C74.5962 199.671 74.2542 199.999 73.8125 200.127L55.8881 205.1C54.62 205.456 54.6057 207.251 55.8881 207.622L73.7555 212.766C74.1972 212.894 74.5249 213.236 74.6532 213.677L79.6258 231.602C79.9821 232.87 81.7773 232.884 82.1478 231.602L87.2915 213.734C87.4197 213.293 87.7617 212.965 88.2034 212.837Z"
			fill="black" />
	</g>
	<defs>
		<clipPath id="clip0_4981_14618">
			<rect width="249" height="294" fill="white" />
		</clipPath>
	</defs>
</svg>
