<svg width="74" height="80" viewBox="0 0 74 80" fill="none" xmlns="http://www.w3.org/2000/svg">
<g clip-path="url(#clip0_3598_855)">
<path opacity="0.08" d="M18.5423 74.8953C35.9382 84.9388 58.1822 78.9786 68.2257 61.5827C78.2692 44.1868 72.3089 21.9428 54.9131 11.8993C37.5172 1.85574 15.2732 7.81601 5.22965 25.2119C-4.81387 42.6078 1.1464 64.8518 18.5423 74.8953Z" fill="#00ADC6"></path>
<path d="M58.2208 46.4082V66.6002L14.3456 66.5937L14.2544 46.4082" stroke="#071C26" stroke-width="2.74286" stroke-linecap="round" stroke-linejoin="round"></path>
<path d="M9.04395 35.3351L14.2548 20.0283H58.5468L64.409 35.3351" stroke="#071C26" stroke-width="2.74286" stroke-linecap="round" stroke-linejoin="round"></path>
<path d="M21.9925 35.335C21.8525 39.2398 18.6445 42.3566 14.7071 42.3566C10.7697 42.3566 7.5585 39.2398 7.41846 35.335H21.9925Z" fill="#00ADC6"></path>
<path d="M36.6479 35.335C36.5079 39.2398 33.3 42.3566 29.3625 42.3566C25.4251 42.3566 22.2172 39.2398 22.0771 35.335H36.6512H36.6479Z" fill="#00ADC6"></path>
<path d="M51.3032 35.335C51.1632 39.2398 47.9553 42.3566 44.0178 42.3566C40.0804 42.3566 36.8725 39.2398 36.7324 35.335H51.3065H51.3032Z" fill="#00ADC6"></path>
<path d="M65.9585 35.335C65.8184 39.2398 62.6105 42.3566 58.6731 42.3566C54.7357 42.3566 51.5277 39.2398 51.3877 35.335H65.9617H65.9585Z" fill="#00ADC6"></path>
<path d="M52.6848 61.0637V53.7359C52.6848 49.6889 49.404 46.4082 45.357 46.4082C41.31 46.4082 38.0293 49.6889 38.0293 53.7359V61.0637H52.6848Z" fill="#00ADC6"></path>
<path d="M28.1606 55.0486L32.2576 53.9119C32.5475 53.8305 32.5508 53.4202 32.2576 53.3355L28.1737 52.1598C28.0727 52.1305 27.9978 52.0523 27.9685 51.9514L26.8319 47.8544C26.7504 47.5645 26.3401 47.5612 26.2554 47.8544L25.0797 51.9383C25.0504 52.0393 24.9723 52.1142 24.8713 52.1435L20.7743 53.2801C20.4844 53.3615 20.4812 53.7719 20.7743 53.8566L24.8583 55.0323C24.9592 55.0616 25.0341 55.1397 25.0634 55.2407L26.2001 59.3377C26.2815 59.6276 26.6918 59.6308 26.7765 59.3377L27.9522 55.2537C27.9815 55.1528 28.0597 55.0779 28.1606 55.0486Z" fill="#00ADC6"></path>
</g>
<defs>
<clipPath id="clip0_3598_855">
<rect width="73.2773" height="80" fill="white"></rect>
</clipPath>
</defs>
</svg>
