<svg width="48" height="46" viewBox="0 0 48 46" fill="none" xmlns="http://www.w3.org/2000/svg">
	<path
		d="M16.6951 8.01578L16.2892 6.46188C16.2599 6.35137 16.1042 6.34911 16.0727 6.45736L15.6058 7.99323C15.5945 8.03157 15.5652 8.05863 15.5269 8.06991L13.973 8.47586C13.8625 8.50518 13.8602 8.6608 13.9685 8.69237L15.5043 9.15922C15.5427 9.1705 15.5697 9.19982 15.581 9.23816L15.987 10.7921C16.0163 10.9026 16.1719 10.9048 16.2035 10.7966L16.6703 9.26071C16.6816 9.22237 16.7109 9.19531 16.7493 9.18403L18.3032 8.77807C18.4137 8.74876 18.4159 8.59314 18.3077 8.56156"
		fill="white" />
	<path
		d="M38.0814 5.11898L40.9118 4.32737C41.1125 4.27099 41.1125 3.98682 40.9118 3.93043L38.0836 3.12303C38.0137 3.10274 37.9596 3.04861 37.9415 2.98095L37.1477 0.150542C37.0913 -0.0501805 36.8071 -0.0501805 36.7507 0.150542L35.9433 2.9787C35.923 3.04861 35.8689 3.10274 35.8013 3.12078L32.9709 3.91239C32.7701 3.96877 32.7701 4.25294 32.9709 4.30933L35.799 5.11672C35.8689 5.13702 35.923 5.19115 35.9411 5.25881L36.735 8.08922C36.7913 8.28994 37.0755 8.28994 37.1319 8.08922L37.9393 5.26106C37.9596 5.19115 38.0137 5.13702 38.0814 5.11898Z"
		fill="white" />
	<path d="M6.91327 30.9912L2.76172 33.357L22.735 44.2587L46.9727 28.8192L43.1329 27.0234"
		stroke="white" stroke-width="1.99301" stroke-linecap="round" stroke-linejoin="round" />
	<path d="M2.76172 21.6712L27.8051 8.16895L46.9727 17.1334L22.735 32.5729L2.76172 21.6712Z"
		stroke="white" stroke-width="1.99301" stroke-linecap="round" stroke-linejoin="round" />
	<path d="M2.69479 33.286C1.04912 30.6966 -0.137005 26.5342 2.7671 21.6699" stroke="white"
		stroke-width="1.99301" stroke-linecap="round" stroke-linejoin="round" />
	<path d="M6.71484 23.8165V30.3934L22.7586 39.5612L42.7883 26.9056V20.1294" stroke="white"
		stroke-width="1.99301" stroke-linecap="round" stroke-linejoin="round" />
	<path fill-rule="evenodd" clip-rule="evenodd"
		d="M34.7321 17.2724C31.2673 17.136 28.3413 14.6561 27.6388 11.2605C24.2473 15.0433 19.8966 17.8392 15.0468 19.3526L8.40625 21.4248L14.3625 21.1714C18.889 20.9788 22.7644 24.3849 23.1545 28.8986C26.4829 23.7139 31.6646 19.9949 37.6417 18.5006L41.4902 17.5385L34.7321 17.2724ZM28.0345 20.6653L25.4989 19.9081C25.4388 19.8896 25.3583 19.89 25.2973 19.9133L22.6715 20.822C22.4822 20.8863 22.2879 20.7751 22.3955 20.6674L23.9188 19.1367C23.9559 19.1003 23.9619 19.0537 23.9262 19.0203L22.5617 17.5736C22.4656 17.4691 22.6747 17.3475 22.8531 17.4011L25.3886 18.1583C25.4487 18.1768 25.5292 18.1764 25.5903 18.1531L28.216 17.2444C28.4053 17.1801 28.5996 17.2913 28.492 17.399L26.9687 18.9297C26.9316 18.9661 26.9257 19.0127 26.9613 19.0461L28.3258 20.4928C28.4219 20.5973 28.2128 20.7189 28.0345 20.6653Z"
		fill="white" />
</svg>
