<svg width="145" height="19" viewBox="0 0 145 19" fill="none" xmlns="http://www.w3.org/2000/svg">
	<path
		d="M6.512 18.288C2.96 18.288 0.752 16.656 0.104 13.824C0.0560001 13.632 0.152 13.488 0.344 13.44L3.056 12.72C3.248 12.672 3.392 12.744 3.464 12.936C3.944 14.328 4.88 14.976 6.464 14.976C8.144 14.976 9.08 14.256 9.08 13.152C9.08 12.144 8.456 11.568 5.288 10.608C1.736 9.528 0.464 7.872 0.464 5.448C0.464 2.112 2.912 0.144 6.56 0.144C9.608 0.144 11.744 1.512 12.512 4.128C12.584 4.32 12.488 4.488 12.296 4.536L9.632 5.328C9.44 5.376 9.296 5.328 9.2 5.112C8.72 3.96 7.928 3.456 6.584 3.456C5.216 3.456 4.184 3.984 4.184 5.16C4.184 6.096 4.832 6.696 8 7.656C11.552 8.736 12.824 10.368 12.824 12.888C12.824 16.296 10.472 18.288 6.512 18.288ZM17.2936 18C17.0776 18 16.9576 17.88 16.9576 17.664V0.767999C16.9576 0.551999 17.0776 0.431999 17.2936 0.431999H23.0536C26.9176 0.431999 28.9816 2.712 28.9816 6.024V7.224C28.9816 10.632 26.9176 12.792 23.0536 12.792H20.7016V17.664C20.7016 17.88 20.5816 18 20.3656 18H17.2936ZM20.7016 9.456H22.7656C24.6136 9.456 25.2376 8.616 25.2376 6.984V6.288C25.2376 4.704 24.6136 3.792 22.7656 3.792H20.7016V9.456ZM33.5171 18C33.3011 18 33.1811 17.88 33.1811 17.664V0.767999C33.1811 0.551999 33.3011 0.431999 33.5171 0.431999H43.6451C43.8611 0.431999 43.9811 0.551999 43.9811 0.767999V3.456C43.9811 3.672 43.8611 3.792 43.6451 3.792H36.9251V7.44H42.9491C43.1651 7.44 43.2851 7.56 43.2851 7.776V10.344C43.2851 10.56 43.1651 10.68 42.9491 10.68H36.9251V14.64H43.6931C43.9091 14.64 44.0291 14.76 44.0291 14.976V17.664C44.0291 17.88 43.9091 18 43.6931 18H33.5171ZM48.9671 18C48.7511 18 48.6311 17.88 48.6311 17.664V0.767999C48.6311 0.551999 48.7511 0.431999 48.9671 0.431999H52.0391C52.2551 0.431999 52.3751 0.551999 52.3751 0.767999V14.544H58.9751C59.1911 14.544 59.3111 14.664 59.3111 14.88V17.664C59.3111 17.88 59.1911 18 58.9751 18H48.9671ZM63.4092 18C63.1932 18 63.0732 17.88 63.0732 17.664V0.767999C63.0732 0.551999 63.1932 0.431999 63.4092 0.431999H66.4812C66.6972 0.431999 66.8172 0.551999 66.8172 0.767999V14.544H73.4172C73.6332 14.544 73.7532 14.664 73.7532 14.88V17.664C73.7532 17.88 73.6332 18 73.4172 18H63.4092ZM77.8514 18C77.6354 18 77.5154 17.88 77.5154 17.664V0.767999C77.5154 0.551999 77.6354 0.431999 77.8514 0.431999H84.5234C87.8354 0.431999 89.7074 2.088 89.7074 4.944V5.184C89.7074 6.96 88.7474 8.304 87.2354 8.808C89.1314 9.24 90.2594 10.704 90.2594 12.816V13.08C90.2594 16.224 88.2194 18 84.6434 18H77.8514ZM81.2594 14.76H84.2114C85.6754 14.76 86.5154 14.064 86.5154 12.864V12.528C86.5154 11.304 85.6754 10.608 84.2114 10.608H81.2594V14.76ZM81.2594 7.392H83.9714C85.2674 7.392 86.0594 6.72 86.0594 5.616V5.424C86.0594 4.32 85.2914 3.672 83.9714 3.672H81.2594V7.392ZM101.156 18.288C96.4518 18.288 94.1958 15.456 94.1958 11.568V6.96C94.1958 2.664 96.7638 0.144 101.18 0.144C106.004 0.144 108.188 3.168 108.188 6.864V11.472C108.188 15.264 106.004 18.288 101.156 18.288ZM97.9398 11.472C97.9398 13.392 98.7558 14.832 101.18 14.832C103.604 14.832 104.444 13.392 104.444 11.472V6.96C104.444 5.04 103.604 3.6 101.18 3.6C98.7558 3.6 97.9398 5.04 97.9398 6.96V11.472ZM119.325 18.288C114.621 18.288 112.365 15.456 112.365 11.568V6.96C112.365 2.664 114.933 0.144 119.349 0.144C124.173 0.144 126.357 3.168 126.357 6.864V11.472C126.357 15.264 124.173 18.288 119.325 18.288ZM116.109 11.472C116.109 13.392 116.925 14.832 119.349 14.832C121.773 14.832 122.613 13.392 122.613 11.472V6.96C122.613 5.04 121.773 3.6 119.349 3.6C116.925 3.6 116.109 5.04 116.109 6.96V11.472ZM131.373 18C131.157 18 131.037 17.88 131.037 17.664V0.767999C131.037 0.551999 131.157 0.431999 131.373 0.431999H134.445C134.661 0.431999 134.781 0.551999 134.781 0.767999V8.088L140.469 0.623999C140.565 0.48 140.709 0.431999 140.877 0.431999H144.237C144.525 0.431999 144.597 0.623999 144.429 0.839999L139.245 7.392L144.621 17.592C144.741 17.808 144.645 18 144.381 18H140.949C140.781 18 140.637 17.928 140.565 17.76L136.869 10.392L134.781 13.032V17.664C134.781 17.88 134.661 18 134.445 18H131.373Z"
		fill="black" />
</svg>
