<svg width="31" height="31" viewBox="0 0 31 31" fill="none" xmlns="http://www.w3.org/2000/svg">
	<path d="M13.6394 1.81504C14.3053 0.126754 16.6946 0.126757 17.3605 1.81505L20.4139 9.55697C20.6171 10.0724 21.0252 10.4804 21.5406 10.6837L29.2825 13.7371C30.9708 14.4029 30.9708 16.7923 29.2825 17.4581L21.5406 20.5115C21.0252 20.7148 20.6171 21.1228 20.4139 21.6383L17.3605 29.3802C16.6946 31.0685 14.3053 31.0685 13.6394 29.3802L10.5861 21.6383C10.3828 21.1228 9.97476 20.7148 9.45932 20.5115L1.71739 17.4581C0.0290973 16.7923 0.0291009 14.4029 1.71739 13.7371L9.45932 10.6837C9.97476 10.4804 10.3828 10.0724 10.5861 9.55697L13.6394 1.81504Z" fill="#902EEF"/>
</svg>
