<svg width="88" height="134" viewBox="0 0 88 134" fill="none" xmlns="http://www.w3.org/2000/svg">
	<path
		d="M63.7789 2.53244C65.1106 -0.844146 69.8893 -0.844145 71.221 2.53244L87.6515 44.1925C88.0581 45.2234 88.8741 46.0394 89.905 46.446L131.565 62.8765C134.942 64.2082 134.942 68.9869 131.565 70.3186L89.905 86.7491C88.8741 87.1557 88.0581 87.9717 87.6515 89.0026L71.221 130.663C69.8893 134.039 65.1106 134.039 63.7789 130.663L47.3484 89.0026C46.9418 87.9717 46.1258 87.1557 45.0949 86.7491L3.43478 70.3186C0.0581977 68.9869 0.0581985 64.2082 3.43478 62.8765L45.0949 46.446C46.1258 46.0394 46.9418 45.2234 47.3484 44.1925L63.7789 2.53244Z"
		fill="#902EEF" />
</svg>
